<svg xmlns="http://www.w3.org/2000/svg" xmlns:xlink="http://www.w3.org/1999/xlink" fill="none" version="1.1" width="325" height="319" viewBox="0 0 325 319"><defs><filter id="master_svg0_4_2125" filterUnits="objectBoundingBox" color-interpolation-filters="sRGB" x="-0.06920415224913495" y="-0.05536332179930796" width="1.1384083044982698" height="1.1384083044982698"><feFlood flood-opacity="0" result="BackgroundImageFix"/><feColorMatrix in="SourceAlpha" type="matrix" values="0 0 0 0 0 0 0 0 0 0 0 0 0 0 0 0 0 0 127 0"/><feOffset dy="4" dx="0"/><feGaussianBlur stdDeviation="5"/><feColorMatrix type="matrix" values="0 0 0 0 0 0 0 0 0 0 0 0 0 0 0 0 0 0 0.30000001192092896 0"/><feBlend mode="normal" in2="BackgroundImageFix" result="effect1_dropShadow"/><feBlend mode="normal" in="SourceGraphic" in2="effect1_dropShadow" result="shape"/></filter><clipPath id="master_svg1_4_2125"><rect x="18" y="11" width="289" height="289" rx="0"/></clipPath><filter id="master_svg2_4_1454" filterUnits="objectBoundingBox" color-interpolation-filters="sRGB" x="-0.2553191489361702" y="-0.47619047619047616" width="1.5106382978723405" height="2.142857142857143"><feFlood flood-opacity="0" result="BackgroundImageFix"/><feColorMatrix in="SourceAlpha" type="matrix" values="0 0 0 0 0 0 0 0 0 0 0 0 0 0 0 0 0 0 127 0"/><feOffset dy="10" dx="0"/><feGaussianBlur stdDeviation="15"/><feColorMatrix type="matrix" values="0 0 0 0 0 0 0 0 0 0 0 0 0 0 0 0 0 0 0.33000001311302185 0"/><feBlend mode="normal" in2="BackgroundImageFix" result="effect1_dropShadow"/><feBlend mode="normal" in="SourceGraphic" in2="effect1_dropShadow" result="shape"/></filter><filter id="master_svg3_4_1875" filterUnits="objectBoundingBox" color-interpolation-filters="sRGB" x="-0.23376623376623376" y="-0.4864864864864865" width="1.5194805194805194" height="2.081081081081081"><feFlood flood-opacity="0" result="BackgroundImageFix"/><feColorMatrix in="SourceAlpha" type="matrix" values="0 0 0 0 0 0 0 0 0 0 0 0 0 0 0 0 0 0 127 0"/><feOffset dy="4" dx="4"/><feGaussianBlur stdDeviation="10"/><feColorMatrix type="matrix" values="0 0 0 0 0 0 0 0 0 0 0 0 0 0 0 0 0 0 0.30000001192092896 0"/><feBlend mode="normal" in2="BackgroundImageFix" result="effect1_dropShadow"/><feBlend mode="normal" in="SourceGraphic" in2="effect1_dropShadow" result="shape"/></filter></defs><g><g filter="url(#master_svg0_4_2125)"><g clip-path="url(#master_svg1_4_2125)"><rect x="18" y="11" width="289" height="289" rx="0" fill="#FFFFFF" fill-opacity="0"/></g></g><g><g filter="url(#master_svg2_4_1454)"><rect x="45" y="121" width="235" height="105" rx="19" fill="#262626" fill-opacity="1"/></g><g><path d="M75 104C75 96.82029825219969 80.82029825219969 91 88 91L237 91C244.17970174780032 91 250 96.82029825219969 250 104L250 121C250 121 250 121 250 121L75 121C75 121 75 121 75 121Z" fill="#262626" fill-opacity="1"/></g><g><rect x="64" y="136" width="15" height="15" rx="7.5" fill="#8EFCAF" fill-opacity="1"/></g><g><rect x="93" y="136" width="15" height="15" rx="7.5" fill="#8091FF" fill-opacity="1"/></g><g><path d="M96 61C96 56.581722001353654 99.58172200135365 53 104 53L221 53C225.41827799864635 53 229 56.581722001353654 229 61L229 121C229 121 229 121 229 121L96 121C96 121 96 121 96 121Z" fill="#D1D5DB" fill-opacity="1"/></g><g filter="url(#master_svg3_4_1875)"><rect x="86" y="182" width="154" height="74" rx="8" fill="#FFFFFF" fill-opacity="1"/></g><g><rect x="102" y="202" width="122" height="13" rx="6.5" fill="#E5E7EB" fill-opacity="1"/></g><g><rect x="102" y="226" width="122" height="13" rx="6.5" fill="#E5E7EB" fill-opacity="1"/></g></g></g></svg>